<?xml version="1.0" encoding="utf-8"?>
<!-- Generator: Adobe Illustrator 26.0.1, SVG Export Plug-In . SVG Version: 6.00 Build 0)  -->
<svg version="1.1" id="Calque_1" xmlns="http://www.w3.org/2000/svg" xmlns:xlink="http://www.w3.org/1999/xlink" x="0px" y="0px"
	 viewBox="0 0 566.9 333.4" style="enable-background:new 0 0 566.9 333.4;" xml:space="preserve">
<style type="text/css">
	.st0{fill:#FFFFFF;}
	.st1{font-family:'MyriadPro-Regular';}
	.st2{font-size:32.8388px;}
	.st3{fill:#D1D3D4;stroke:#FFFFFF;stroke-miterlimit:10;}
	.st4{fill:#F9ED32;stroke:#FFF200;stroke-miterlimit:10;}
	.st5{fill:none;}
	.st6{fill:#FFFFFF;stroke:#FFFFFF;stroke-miterlimit:10;}
	.st7{fill:#91288D;}
</style>
<path class="st0" d="M289.3,297.6c-8.3-7.5-14.8-15.2-18.4-23.3c-0.9-2.1-1.4-4.3-2.1-6.4c-0.2-0.6,0.1-1,2-0.8c0.6,0,1.3,0,1.9,0
	c3.9,0,3.9,0,4.2,1.5c1.4,5.9,4.9,11.6,9.5,17.2c3.3,4,7.3,8,11.6,11.8C295.2,297.6,292.3,297.6,289.3,297.6z"/>
<text transform="matrix(1 0 0 1 54.7793 325.2284)" class="st1 st2">l’ équipement de la route maîtrisé</text>
<g>
	<path class="st3" d="M362.3,297.6c-44.2,0-88.4,0-132.7,0c-1-0.2-1.4-0.6-1.8-1c-9.5-8.6-16.8-17.5-19.8-26.8
		c-0.2-0.5-0.1-1.1-0.4-1.6c-0.5-0.8-1.6-1-4.7-0.9c-2.2,0.1-1.6,0.7-1.5,1.2c2.1,9.3,8.9,18.1,17.8,26.7c0.8,0.7,2.1,1.4,1.7,2.3
		c-47.3,0-94.6,0-141.9,0c-0.8-0.3-1-0.7-1.2-1.1c-2.4-4.5-4.1-9.1-4.9-13.7c-0.5-2.9-0.6-5.7-0.3-8.6c0.7-6.1,3.2-12.2,8.2-18
		c7.9-9.4,20.5-17.8,36.1-25.5c12.1-6,26-11.4,40.3-16.7c13.1-4.8,27-9.3,40.9-13.8c12.9-4.2,25.9-8.3,38.3-12.7
		c8.4-3,16.6-6.1,23.7-9.5c5.2-2.6,9.8-5.3,12.6-8.4c4.2-4.6,2.4-8.9-4.3-13c-5.2-3.1-12-5.7-19.3-8c-10.9-3.5-22.8-6.5-34.7-9.5
		c-12.1-3-24.2-6.1-34.9-9.9c-3.9-1.4-7.3-2.9-9.8-4.8c-2.9-2.1-2.2-4.2,1.3-6.1c4.1-2.2,10.1-3.6,16.2-4.9
		c12.4-2.6,25.7-4.4,38.6-6.4c7.7-1.2,15.5-2.4,22.6-4.1c2.3-0.5,4.4-1.2,6.3-1.9c3-1.3,3.1-2.5,0.2-3.8c-0.9-0.4-1.8-0.7-2.8-1
		c-0.6-0.2-1.5-0.4-1.2-0.8c23.1,0,46.2,0,69.3,0c5.9,0.7,10.9,1.9,15.1,3.6c3.6,1.5,3.6,2.8,0.4,4.4c-3.4,1.7-8.1,2.8-12.7,3.9
		c-8.4,1.9-17.5,3.4-26.1,5.3c-6.4,1.4-12.8,2.8-18.1,4.9c-1.4,0.6-2.6,1.2-3.7,1.9c-2.6,1.8-1.9,3.5,0.6,5.2
		c2.6,1.7,6.4,3.1,10.4,4.3c9,2.8,19,5,29.1,7.2c18.5,4,37.4,7.7,55.5,12c11.1,2.6,21.8,5.5,31.1,9c6.9,2.6,13,5.5,15.9,9.2
		c3.3,4.1,1.6,8-2.1,11.9c-5.4,5.8-14.2,10.8-23.3,15.7c-8.3,4.4-17.3,8.7-25.8,13c-10.1,5.2-19.5,10.5-27.3,16.3
		c-9.6,7.1-15.7,14.5-17.9,22.5c-2.2,8,0.7,15.8,6.7,23.5c7.4,9.7,19.4,18.5,32.9,27.1C361.3,296.5,362.7,296.9,362.3,297.6z"/>
	<path d="M330.1,95.3c2.8,0.6,5.6,1.1,8.3,1.7c3.2,0.7,6.3,1.5,8.6,2.6c2.9,1.3,2.9,2.5,0.2,3.9c-2.2,1.1-5.1,2-8.1,2.8
		c-8.4,2.3-17.8,3.8-26.7,5.8c-5.6,1.2-11.1,2.5-15.9,4.1c-1.5,0.5-3,1.1-4.3,1.7c-5.2,2.4-5.4,4.6-0.8,7.2c4.2,2.3,10,4,15.9,5.6
		c13.2,3.5,27.5,6.3,41.5,9.2c18.5,3.8,37.1,7.4,54.4,12c8.4,2.2,16.2,4.7,23.2,7.5c14.1,5.7,17.2,12.2,10.7,19.5
		c-5.3,5.9-13.6,11.2-22.7,16.4c-10.8,6.1-22.6,12-32.5,18.3c-9.7,6.2-17.9,12.6-22.7,19.6c-4,5.9-5.6,11.8-4.6,17.9
		c1.4,8.5,7.8,16.5,16.8,24.2c8.8,7.6,20,14.7,32.1,21.7c0.5,0.3,1.3,0.5,1.2,0.9c-11.4,0-22.8,0-34.1,0c-2.3-0.8-3.6-1.9-5.2-2.9
		c-10.4-6.6-19.9-13.3-26.9-20.5c-6.1-6.3-10.7-12.7-12.1-19.4c-1.8-8.8,1.5-17.2,9.7-25.4c7.9-8,19.8-15.2,32.8-22
		c9.9-5.3,20.7-10.3,30.2-15.6c8.3-4.7,16.1-9.5,20.4-14.9c2.9-3.6,3.8-7.3,0.5-10.9c-2.2-2.4-5.9-4.4-10.2-6.3
		c-9.3-4.2-20.9-7.3-32.8-10.2c-14.7-3.6-30.2-6.7-45.6-9.9c-13.5-2.8-27.1-5.6-39.6-9.1c-4.7-1.3-9.1-2.7-12.7-4.5
		c-6-2.9-5.8-5.7,0.8-8.4c5.9-2.5,13.4-4.1,21-5.7c9-1.9,18.6-3.4,27.2-5.7c2.8-0.7,5.6-1.5,7.9-2.5c3.6-1.6,3.5-2.8-0.3-4.3
		c-3.4-1.3-7.6-2.2-11.8-3.1c-0.8-0.2-2-0.2-2-0.7C324.5,95.3,327.3,95.3,330.1,95.3z"/>
	<path class="st3" d="M38.4,297.6c-1.5-4.2-2.7-8.3-3.1-12.6c-1.2-14,6.7-27.1,24.7-39.3c15.6-10.6,36.2-19.5,59.1-27.8
		c22.9-8.2,47.7-15.6,72-23.2c14.5-4.5,28.8-9,41.6-14.2c8.2-3.3,15.4-6.9,19.9-11.2c5.7-5.5,2.6-10.4-6.4-15
		c-8.6-4.4-19.7-7.8-31.1-11c-13-3.7-26.8-6.9-39.6-10.7c-6.1-1.8-12.1-3.7-16.8-6.1c-7.9-4-6.9-7.1,3.4-10.2
		c7.9-2.4,17.1-3.9,26.2-5.4c14-2.3,28.4-4.1,42-6.6c4.4-0.8,8.7-1.7,12.4-2.9c5-1.7,5-3.3,0.1-5.1c-0.9-0.3-1.8-0.6-2.7-0.9
		c2.6,0,5.2,0,7.8,0c2.7,0.4,4.6,1.2,6.2,2c2,1,1.9,2.4-0.2,3.5c-2.8,1.5-6.7,2.3-10.8,3.1c-11.8,2.4-24.4,4.1-36.7,6
		c-9,1.4-17.8,2.9-26.1,4.8c-4.3,1-8.5,2.1-11.5,3.7c-3.9,2-4.1,4.1-0.9,6.2c3.2,2.2,8,3.9,13,5.5c9.9,3.2,20.6,5.9,31.3,8.6
		c11.7,3,23.2,6,33.9,9.5c6.2,2,11.7,4.2,16.6,6.7c10.4,5.4,11.6,11,3.8,17c-4.7,3.6-11.1,6.8-18.2,9.7
		c-15.4,6.3-32.7,11.7-49.8,17.2c-13.5,4.3-26.9,8.6-40,13.2c-10.8,3.7-21.3,7.6-31.2,11.7c-17.8,7.3-33.2,15.4-44.5,24.5
		c-8.5,6.9-14,14.1-16.3,21.7c-1.4,4.4-1.3,8.9-0.9,13.3c0.4,4.4,2.2,8.8,4.3,13.1c0.2,0.5,0.8,1-0.2,1.4
		C59.2,297.6,48.8,297.6,38.4,297.6z"/>
	<path class="st4" d="M69.6,297.6c-0.7-1.7-1.5-3.4-2.2-5.2c-2.9-6.9-3.7-13.9-2.1-20.9c3.5-15,19.4-27.9,43-39.7
		c16-8,34.6-15,54.2-21.6c18.6-6.3,38-12.3,56.9-18.5c13.3-4.4,26.4-8.9,37.3-14.2c4.3-2.1,8-4.4,10.7-6.9c5.8-5.1,4.5-10-3.6-14.6
		c-6.5-3.7-15-6.6-24-9.4c-13.3-4-27.7-7.4-41.6-11.1c-9.4-2.5-18.8-5-26.5-8.4c-1.8-0.8-3.4-1.6-4.8-2.6c-3.1-2.2-2.7-4.3,1.3-6.3
		c4.2-2.1,10-3.4,15.9-4.7c11.6-2.4,23.9-4.1,36.1-6c8.1-1.3,16.2-2.5,23.9-4.2c3-0.6,5.9-1.3,8.2-2.3c3.5-1.4,3.5-2.9,0.1-4.3
		c-1.4-0.6-2.9-1.1-4.4-1.6c0.8,0,1.6,0,2.4,0c1.4,0.5,2.8,0.9,4,1.4c4.1,1.6,4,3.2-0.2,4.7c-4.7,1.7-10.6,2.8-16.4,3.8
		c-12.6,2.3-25.8,4-38.6,6.2c-7.2,1.2-14.3,2.5-20.7,4.3c-2.8,0.8-5.3,1.6-7.4,2.7c-3.6,1.9-4.1,3.8-1.4,5.9
		c3.3,2.5,8.7,4.4,14.2,6.2c11.8,3.8,24.9,6.9,37.6,10.2c13.8,3.6,27.6,7.2,39,11.9c5.7,2.4,10.5,5,13.1,8.1c3.2,4,1.1,7.8-3.5,11.4
		c-5.7,4.5-14.3,8.2-23.4,11.8c-15.5,6-32.5,11.3-49.3,16.7c-22.9,7.4-45.6,14.9-65.8,23.5c-20.6,8.8-37.8,18.4-48.4,29.6
		c-5.1,5.3-8.2,10.9-9.7,16.5c-1.2,4.7-1.2,9.4-0.3,14.1c0.9,4.5,2.9,8.9,5.2,13.3C75.8,297.6,72.7,297.6,69.6,297.6z"/>
	<path class="st5" d="M321.8,95.3c3.9,0.9,8,1.6,11.7,2.6c7.7,2.2,7.9,4.2,0.6,6.6c-6.7,2.2-14.4,3.7-22.2,5.2
		c-9.1,1.8-18.3,3.5-26.4,5.9c-2.5,0.7-4.8,1.6-6.7,2.6c-4,2-4.3,4.1-0.9,6.3c2.9,1.9,6.9,3.3,11.3,4.6c12.1,3.6,25.6,6.4,39,9.2
		c18.1,3.8,36.4,7.4,53.6,11.8c11.5,2.9,22.4,6.1,31,10.3c7,3.4,11,7.2,9.9,11.7c-0.9,3.7-4.2,7.1-8.5,10.4
		c-8.3,6.4-19.4,12.1-30.6,17.7c-13.2,6.6-26.2,13.3-36.6,20.7c-9.1,6.4-15.6,13.2-18.5,20.4c-2,5-2.3,9.9-0.9,14.9
		c2.9,10,11.9,19.2,23.6,28.1c5.6,4.3,11.8,8.4,18.4,12.4c0.5,0.3,1.2,0.5,1.1,0.9c-2.8,0-5.5,0-8.3,0c-7.9-5-15.4-10-21.9-15.3
		c-8.8-7.2-15.6-14.5-18.9-22.4c-5-11.9-0.2-23.3,12.9-34.1c9.3-7.7,21.9-14.6,35.2-21.4c11.2-5.6,22.9-11.1,32.6-17.1
		c5.4-3.4,10.1-6.9,13.5-10.6c6-6.8,2.1-12.7-10.3-18c-10-4.3-22-7.5-34.6-10.5c-17.6-4.2-36.2-7.8-54.3-11.7
		c-10.8-2.3-21.5-4.6-31.2-7.6c-4.1-1.3-7.9-2.6-10.5-4.4c-3.3-2.2-3.2-4.2,0.8-6.3c3.8-1.9,8.9-3.3,14.1-4.5
		c9.4-2.3,19.7-3.9,29.4-6c4.5-1,9-2,12.9-3.3c0.9-0.3,1.8-0.6,2.6-1c3.4-1.5,3.3-2.8-0.2-4.3c-3.3-1.4-7.5-2.2-11.8-3.1
		c-0.9-0.2-2-0.2-2.6-0.6C320.5,95.3,321.1,95.3,321.8,95.3z"/>
	<path class="st0" d="M212.2,239.3c4.1-3.8,8.8-7.3,14.2-10.6c6.1-3.8,13-7.4,20.3-10.9c1.5-0.7,2.5-0.8,7.2-0.5
		c-4.1,2-8.1,4-11.9,6.1c-8.7,4.8-16.4,9.8-22.1,15.3c-0.5,0.5-1.2,0.7-2.7,0.7C215.6,239.3,214.1,239.3,212.2,239.3z"/>
	<path class="st0" d="M331.8,184.4c-7.6,3.7-15.5,7-23.5,10.2c-2.9,1.2-5.9,2.2-8.6,3.5c-2.2,1-4.6,1.5-8.1,1.1
		c-0.2-0.3,0.7-0.5,1.2-0.7c11.3-4.4,22.7-8.8,32.9-13.7C327.4,184.1,329.4,184.6,331.8,184.4z"/>
	<path class="st6" d="M342.8,161.3c3.9-0.2,4-0.2,5.3,1.1c2.8,2.8,3.4,5.7,2,8.7c-0.3,0.7-3.1,1.1-4.6,0.8c-0.6-0.1-0.3-0.3-0.2-0.5
		c2-3.4,1.2-6.7-2.5-9.9C342.7,161.4,342.8,161.4,342.8,161.3z"/>
	<path class="st6" d="M325.2,151.6c-2.4,0.2-4.1,0-5.8-0.6c-8.4-2.7-17.6-5-26.9-7.2c-0.7-0.2-1.4-0.4-2.1-0.6
		c1.4,0,2.8-0.1,4.1,0.2c10.3,2.4,20.4,5,29.8,7.9C324.6,151.4,324.8,151.5,325.2,151.6z"/>
	<path class="st6" d="M232.2,128.7c1.3,0,2.6-0.1,3.8,0.3c7,2.3,14.8,4.2,22.6,6.1c0.4,0.1,0.9,0.1,1,0.4c-1.4,0-2.6,0.1-3.8-0.2
		c-7.9-1.9-15.7-3.8-22.8-6.1C232.7,129.1,232.1,129,232.2,128.7z"/>
	<path class="st6" d="M227.9,117.6c-3.1,1.5-4.8,3-4.2,4.8c0.1,0.3-0.3,0.4-1,0.3c-0.8-0.1-2,0.2-2.4-0.4c-0.8-1.2,1.7-4,4.3-4.7
		C225.6,117.4,226.6,117.6,227.9,117.6z"/>
	<path class="st6" d="M242.2,112.8c7.5-1.5,15.1-2.9,23.2-3.8c-7.5,1.5-15,2.9-22.6,4.3C242.5,113.2,242.4,113,242.2,112.8z"/>
	<path class="st6" d="M284,105.3c4-1,8.1-1.8,11.1-3.2c0.6-0.3,1.6-0.1,2.5-0.1C294.7,103.8,287.4,105.5,284,105.3z"/>
	<path class="st6" d="M285.6,95.5c3.6,0.1,9.8,1.7,12.3,3.2c-0.9,0.1-1.9,0.1-2.4-0.1c-1.3-0.6-2.8-1.2-4.5-1.7
		C289.3,96.5,287.6,96.1,285.6,95.5z"/>
	<g>
		<path class="st7" d="M203,20.1h-75.2c-4.4,0-7.3,1.5-8.6,4.4l-24,51.6c-0.3,0.6-0.4,1.2-0.4,1.6c0,1.9,1.5,2.8,4.6,2.8h4.8
			c3.2,0,4.8,1,4.8,3c0,0.3-0.1,0.8-0.4,1.4l-5.3,11.3c-1.3,2.9-4.2,4.4-8.6,4.4H37.4c-3.2,0-4.8-1-4.8-3c0-0.3,0.1-0.8,0.4-1.4
			l33.4-71.7c0.3-0.8,0.4-1.3,0.4-1.4c0-2-1.5-3-4.6-3H4.8c-3.2,0-4.8-1-4.8-3c0-0.3,0.1-0.8,0.4-1.4L5.7,4.4C7,1.5,9.9,0,14.3,0
			h197.9c3.2,0,4.8,0.9,4.8,2.8c0,0.7-0.1,1.3-0.2,1.6l-5.5,11.3C210,18.7,207.2,20.1,203,20.1z"/>
	</g>
	<g>
		<path class="st7" d="M135.2,28.7h206.9c3.2,0,4.8,1,4.8,3c0,0.3-0.1,0.8-0.4,1.4l-16.9,36c-2.9,5.9-8.9,10.7-17.8,14.6
			c-8.5,3.6-17.4,5.3-26.6,5.3h-108c-4.4,0-7.3,1.5-8.6,4.4l-14.5,31.4c-1.3,2.9-4.2,4.4-8.6,4.4h-39.8c-3.2,0-4.8-1-4.8-3
			c0-0.1,0.1-0.6,0.4-1.4l31-66.6c1.3-2.9,4.2-4.4,8.6-4.4h40c3.1,0,4.6,1,4.6,3c0,0.3-0.1,0.8-0.4,1.4l-2.9,6.3
			c-0.3,0.8-0.4,1.3-0.4,1.4c0,2,1.6,3,4.8,3h83.8c4.4,0,7.3-1.5,8.6-4.4l5.3-11.2c0.3-0.8,0.4-1.3,0.4-1.4c0-2-1.6-3-4.8-3H125.7
			c-3.1,0-4.6-1-4.6-2.9c0-0.7,0.1-1.2,0.2-1.4l5.5-11.6C128.2,30.2,130.9,28.7,135.2,28.7z"/>
	</g>
	<g>
		<path class="st7" d="M342.6,98.2c-5.9-2.6-8.8-6.5-8.8-11.5c0-2,0.4-3.7,1.1-5.2l26.4-56.1c0.3-0.8,0.4-1.3,0.4-1.4
			c0-2-1.6-3-4.8-3h-4.6c-3.2,0-4.8-0.9-4.8-2.8c0-0.4,0.1-0.9,0.4-1.6l5.3-11.2c1.3-2.9,4.2-4.4,8.6-4.4h178.1
			c7.2,0,13.3,1.1,18.3,3.4c5.9,2.6,8.8,6.4,8.8,11.4c0,1.6-0.4,3.3-1.3,5.1l-5.1,10.7c-1.3,2.9-4.1,4.4-8.4,4.4h-39.8
			c-3.2,0-4.8-1-4.8-3c0-0.6,0.1-1.1,0.2-1.4l3.1-6.3c0.1-0.4,0.2-0.9,0.2-1.4c0-2-1.5-3-4.6-3h-83.8c-4.4,0-7.3,1.5-8.6,4.4
			l-24.2,51.8c-0.3,0.6-0.4,1.2-0.4,1.6c0,1.9,1.6,2.8,4.8,2.8h83.8c4.3,0,7.1-1.5,8.6-4.4l3.1-6.3c1.3-2.9,4.2-4.4,8.6-4.4h39.8
			c3.1,0,4.6,1,4.6,3c0,0.6-0.1,1.1-0.2,1.4l-5.1,10.7c-2.9,5.9-8.9,10.8-18,14.7c-8.5,3.5-17.4,5.3-26.6,5.3H360.9
			C353.7,101.7,347.6,100.6,342.6,98.2z"/>
	</g>
</g>
</svg>
