<svg xmlns="http://www.w3.org/2000/svg" viewBox="0 0 567 129.2"><defs><style>.cls-1{fill:#91288d;}</style></defs><g id="Calque_2" data-name="Calque 2"><g id="Calque_1-2" data-name="Calque 1"><path class="cls-1" d="M203,20.1H127.8c-4.4,0-7.3,1.5-8.6,4.4l-24,51.6a3.73,3.73,0,0,0-.4,1.6c0,1.9,1.5,2.8,4.6,2.8h4.8q4.8,0,4.8,3a3.35,3.35,0,0,1-.4,1.4l-5.3,11.3c-1.3,2.9-4.2,4.4-8.6,4.4H37.4q-4.8,0-4.8-3a3.35,3.35,0,0,1,.4-1.4L66.4,24.5a6.26,6.26,0,0,0,.4-1.4c0-2-1.5-3-4.6-3H4.8q-4.8,0-4.8-3a3.35,3.35,0,0,1,.4-1.4L5.7,4.4C7,1.5,9.9,0,14.3,0H212.2c3.2,0,4.8.9,4.8,2.8a5.67,5.67,0,0,1-.2,1.6l-5.5,11.3C210,18.7,207.2,20.1,203,20.1Z"/><path class="cls-1" d="M135.2,28.7H342.1q4.8,0,4.8,3a3.35,3.35,0,0,1-.4,1.4l-16.9,36c-2.9,5.9-8.9,10.7-17.8,14.6A67.55,67.55,0,0,1,285.2,89h-108c-4.4,0-7.3,1.5-8.6,4.4l-14.5,31.4c-1.3,2.9-4.2,4.4-8.6,4.4H105.7q-4.8,0-4.8-3a6.26,6.26,0,0,1,.4-1.4l31-66.6c1.3-2.9,4.2-4.4,8.6-4.4h40c3.1,0,4.6,1,4.6,3a3.35,3.35,0,0,1-.4,1.4l-2.9,6.3a6.26,6.26,0,0,0-.4,1.4q0,3,4.8,3h83.8c4.4,0,7.3-1.5,8.6-4.4l5.3-11.2a6.26,6.26,0,0,0,.4-1.4q0-3-4.8-3H125.7c-3.1,0-4.6-1-4.6-2.9a3.71,3.71,0,0,1,.2-1.4L126.8,33C128.2,30.2,130.9,28.7,135.2,28.7Z"/><path class="cls-1" d="M342.6,98.2c-5.9-2.6-8.8-6.5-8.8-11.5a12.07,12.07,0,0,1,1.1-5.2l26.4-56.1a6.26,6.26,0,0,0,.4-1.4q0-3-4.8-3h-4.6c-3.2,0-4.8-.9-4.8-2.8a4.08,4.08,0,0,1,.4-1.6l5.3-11.2c1.3-2.9,4.2-4.4,8.6-4.4H539.9c7.2,0,13.3,1.1,18.3,3.4,5.9,2.6,8.8,6.4,8.8,11.4a11.34,11.34,0,0,1-1.3,5.1l-5.1,10.7c-1.3,2.9-4.1,4.4-8.4,4.4H512.4q-4.8,0-4.8-3a4.64,4.64,0,0,1,.2-1.4l3.1-6.3a5.9,5.9,0,0,0,.2-1.4c0-2-1.5-3-4.6-3H422.7c-4.4,0-7.3,1.5-8.6,4.4L389.9,77.1a3.73,3.73,0,0,0-.4,1.6c0,1.9,1.6,2.8,4.8,2.8h83.8c4.3,0,7.1-1.5,8.6-4.4l3.1-6.3c1.3-2.9,4.2-4.4,8.6-4.4h39.8c3.1,0,4.6,1,4.6,3a4.64,4.64,0,0,1-.2,1.4l-5.1,10.7q-4.35,8.85-18,14.7a69.37,69.37,0,0,1-26.6,5.3h-132Q350.1,101.8,342.6,98.2Z"/></g></g></svg>